<svg width="88" height="88" viewBox="0 0 88 88" fill="none" xmlns="http://www.w3.org/2000/svg">
<path d="M33.9167 15.5833V31.625C33.9167 32.89 32.89 33.9167 31.625 33.9167H15.5833V54.0833H31.625C32.89 54.0833 33.9167 55.11 33.9167 56.375V72.4167H54.0833V56.375C54.0833 55.11 55.11 54.0833 56.375 54.0833H72.4167V33.9167H56.375C55.11 33.9167 54.0833 32.89 54.0833 31.625V15.5833H33.9167ZM29.3333 15.125C29.3333 14.031 29.7679 12.9818 30.5415 12.2082C31.3151 11.4346 32.3643 11 33.4583 11H54.5417C55.6357 11 56.6849 11.4346 57.4585 12.2082C58.2321 12.9818 58.6667 14.031 58.6667 15.125V29.3333H72.875C73.969 29.3333 75.0182 29.7679 75.7918 30.5415C76.5654 31.3151 77 32.3643 77 33.4583V54.5417C77 55.6357 76.5654 56.6849 75.7918 57.4585C75.0182 58.2321 73.969 58.6667 72.875 58.6667H58.6667V72.875C58.6667 73.969 58.2321 75.0182 57.4585 75.7918C56.6849 76.5654 55.6357 77 54.5417 77H33.4583C32.3643 77 31.3151 76.5654 30.5415 75.7918C29.7679 75.0182 29.3333 73.969 29.3333 72.875V58.6667H15.125C14.031 58.6667 12.9818 58.2321 12.2082 57.4585C11.4346 56.6849 11 55.6357 11 54.5417V33.4583C11 32.3643 11.4346 31.3151 12.2082 30.5415C12.9818 29.7679 14.031 29.3333 15.125 29.3333H29.3333V15.125Z" fill="white"/>
</svg>
