<svg width="30" height="30" viewBox="0 0 30 30" fill="none" xmlns="http://www.w3.org/2000/svg">
<path d="M3.125 15C3.125 9.4025 3.125 6.6025 4.86375 4.86375C6.6025 3.125 9.40125 3.125 15 3.125C20.5975 3.125 23.3975 3.125 25.1362 4.86375C26.875 6.6025 26.875 9.40125 26.875 15C26.875 20.5975 26.875 23.3975 25.1362 25.1362C23.3975 26.875 20.5988 26.875 15 26.875C9.4025 26.875 6.6025 26.875 4.86375 25.1362C3.125 23.3975 3.125 20.5988 3.125 15Z" stroke="black" stroke-width="3.125" stroke-linecap="round" stroke-linejoin="round"/>
<path d="M21.885 8.125H21.8725M20.625 15C20.625 16.4918 20.0324 17.9226 18.9775 18.9775C17.9226 20.0324 16.4918 20.625 15 20.625C13.5082 20.625 12.0774 20.0324 11.0225 18.9775C9.96763 17.9226 9.375 16.4918 9.375 15C9.375 13.5082 9.96763 12.0774 11.0225 11.0225C12.0774 9.96763 13.5082 9.375 15 9.375C16.4918 9.375 17.9226 9.96763 18.9775 11.0225C20.0324 12.0774 20.625 13.5082 20.625 15Z" stroke="black" stroke-width="3.125" stroke-linecap="round" stroke-linejoin="round"/>
</svg>
