<svg width="22" height="22" viewBox="0 0 22 22" fill="none" xmlns="http://www.w3.org/2000/svg">
<g clip-path="url(#clip0_2148_1223)">
<path d="M10.01 2.62897C10.1109 2.45587 10.2554 2.31224 10.4291 2.21242C10.6028 2.11259 10.7997 2.06006 11 2.06006C11.2004 2.06006 11.3972 2.11259 11.5709 2.21242C11.7446 2.31224 11.8891 2.45587 11.99 2.62897L14.5521 7.02714L19.5278 8.10514C19.7235 8.14767 19.9046 8.24076 20.0532 8.37513C20.2017 8.5095 20.3124 8.68045 20.3742 8.87095C20.4361 9.06144 20.447 9.26482 20.4057 9.46082C20.3645 9.65681 20.2726 9.83857 20.1392 9.98797L16.7475 13.7839L17.2608 18.8485C17.2811 19.0479 17.2487 19.2492 17.1668 19.4321C17.085 19.6151 16.9565 19.7734 16.7944 19.8912C16.6322 20.0091 16.442 20.0823 16.2426 20.1036C16.0433 20.1249 15.8419 20.0935 15.6585 20.0126L11 17.9593L6.3415 20.0126C6.15809 20.0935 5.95668 20.1249 5.75736 20.1036C5.55804 20.0823 5.3678 20.0091 5.20563 19.8912C5.04347 19.7734 4.91504 19.6151 4.83319 19.4321C4.75134 19.2492 4.71892 19.0479 4.73917 18.8485L5.2525 13.7839L1.86083 9.98889C1.72721 9.8395 1.63511 9.65767 1.59373 9.46155C1.55235 9.26543 1.56314 9.06189 1.62502 8.87125C1.68689 8.68061 1.7977 8.50953 1.94637 8.3751C2.09503 8.24067 2.27636 8.14758 2.47225 8.10514L7.44792 7.02714L10.01 2.62897Z" fill="#FFB016"/>
</g>
<defs>
<clipPath id="clip0_2148_1223">
<rect width="22" height="22" fill="white"/>
</clipPath>
</defs>
</svg>